<svg width="22" height="25" viewBox="0 0 22 25" fill="none" xmlns="http://www.w3.org/2000/svg">
<path d="M11 4.14282C9.14348 4.14282 7.36301 4.88032 6.05025 6.19307C4.7375 7.50583 4 9.28631 4 11.1428V16.1428C4 16.9385 3.68393 17.7015 3.12132 18.2641C2.55871 18.8268 1.79565 19.1428 1 19.1428H21C20.2044 19.1428 19.4413 18.8268 18.8787 18.2641C18.3161 17.7015 18 16.9385 18 16.1428V11.1428C18 9.28631 17.2625 7.50583 15.9497 6.19307C14.637 4.88032 12.8565 4.14282 11 4.14282ZM11 4.14282V1.14282M12.73 23.1428C12.5542 23.4459 12.3018 23.6975 11.9982 23.8724C11.6946 24.0472 11.3504 24.1393 11 24.1393C10.6496 24.1393 10.3054 24.0472 10.0018 23.8724C9.69816 23.6975 9.44581 23.4459 9.27 23.1428" stroke="white" stroke-linecap="round" stroke-linejoin="round"/>
</svg>
