<svg width="21" height="21" viewBox="0 0 21 21" fill="none" xmlns="http://www.w3.org/2000/svg">
<mask id="path-1-inside-1_684_7477" fill="white">
<path d="M10.9444 20.7148C16.4525 20.7148 20.9178 16.2376 20.9178 10.7148C20.9178 5.19194 16.4525 0.714783 10.9444 0.714783C5.43619 0.714783 0.970947 5.19194 0.970947 10.7148C0.970947 16.2376 5.43619 20.7148 10.9444 20.7148Z"/>
<path d="M8.04209 7.71478C8.27657 7.04645 8.73938 6.48289 9.34856 6.12392C9.95774 5.76494 10.674 5.63372 11.3704 5.75349C12.0668 5.87327 12.6985 6.23631 13.1535 6.77831C13.6086 7.32031 13.8576 8.0063 13.8566 8.71478C13.8566 10.7148 10.8646 11.7148 10.8646 11.7148"/>
<path d="M11.9417 15.7148C11.9417 16.2671 11.4952 16.7148 10.9444 16.7148C10.3935 16.7148 9.94701 16.2671 9.94701 15.7148C9.94701 15.1625 10.3935 14.7148 10.9444 14.7148C11.4952 14.7148 11.9417 15.1625 11.9417 15.7148Z"/>
</mask>
<path d="M7.09848 7.38372C6.91564 7.90487 7.18989 8.47555 7.71103 8.65839C8.23218 8.84123 8.80286 8.56698 8.9857 8.04584L7.09848 7.38372ZM13.8566 8.71478L12.8566 8.7133V8.71478H13.8566ZM10.5476 10.7664C10.0238 10.9414 9.74107 11.508 9.91614 12.0318C10.0912 12.5556 10.6577 12.8383 11.1816 12.6632L10.5476 10.7664ZM19.9178 10.7148C19.9178 15.6879 15.8977 19.7148 10.9444 19.7148V21.7148C17.0073 21.7148 21.9178 16.7874 21.9178 10.7148H19.9178ZM10.9444 19.7148C5.99099 19.7148 1.97095 15.6879 1.97095 10.7148H-0.0290527C-0.0290527 16.7874 4.8814 21.7148 10.9444 21.7148V19.7148ZM1.97095 10.7148C1.97095 5.74171 5.99099 1.71478 10.9444 1.71478V-0.285217C4.8814 -0.285217 -0.0290527 4.64216 -0.0290527 10.7148H1.97095ZM10.9444 1.71478C15.8977 1.71478 19.9178 5.74171 19.9178 10.7148H21.9178C21.9178 4.64216 17.0073 -0.285217 10.9444 -0.285217V1.71478ZM8.9857 8.04584C9.14218 7.59983 9.45081 7.22437 9.85625 6.98546L8.84088 5.26237C8.02796 5.74141 7.41096 6.49307 7.09848 7.38372L8.9857 8.04584ZM9.85625 6.98546C10.2616 6.74658 10.7379 6.6594 11.2009 6.73903L11.5399 4.76796C10.61 4.60804 9.65386 4.7833 8.84088 5.26237L9.85625 6.98546ZM11.2009 6.73903C11.6639 6.81866 12.0844 7.0601 12.3877 7.42131L13.9194 6.13531C13.3126 5.41251 12.4697 4.92788 11.5399 4.76796L11.2009 6.73903ZM12.3877 7.42131C12.691 7.78257 12.8573 8.24024 12.8566 8.7133L14.8566 8.71627C14.858 7.77237 14.5262 6.85806 13.9194 6.13531L12.3877 7.42131ZM12.8566 8.71478C12.8566 9.18517 12.4918 9.67424 11.8049 10.1334C11.4915 10.3429 11.1711 10.5042 10.925 10.6139C10.8034 10.6681 10.7035 10.7081 10.6363 10.7337C10.6028 10.7465 10.5777 10.7557 10.5624 10.7611C10.5547 10.7639 10.5495 10.7657 10.547 10.7665C10.5457 10.767 10.5451 10.7672 10.5452 10.7671C10.5453 10.7671 10.5455 10.7671 10.5459 10.7669C10.5461 10.7669 10.5463 10.7668 10.5466 10.7667C10.5467 10.7666 10.547 10.7666 10.5471 10.7665C10.5473 10.7664 10.5476 10.7664 10.8646 11.7148C11.1816 12.6632 11.1818 12.6631 11.1821 12.663C11.1823 12.663 11.1826 12.6629 11.1828 12.6628C11.1833 12.6626 11.1838 12.6625 11.1843 12.6623C11.1855 12.6619 11.1868 12.6615 11.1882 12.661C11.1912 12.66 11.1949 12.6587 11.1993 12.6572C11.2081 12.6541 11.2197 12.6501 11.234 12.645C11.2625 12.6348 11.3017 12.6205 11.35 12.6021C11.4464 12.5652 11.5802 12.5115 11.7391 12.4407C12.0541 12.3003 12.4816 12.0867 12.9163 11.7962C13.7254 11.2553 14.8566 10.2444 14.8566 8.71478H12.8566ZM10.9417 15.7148C10.9417 15.7163 10.9416 15.7167 10.9416 15.7164C10.9417 15.7161 10.9418 15.7157 10.9419 15.7154C10.9422 15.7148 10.9421 15.7151 10.9415 15.7157C10.9409 15.7163 10.9409 15.7161 10.9421 15.7156C10.9428 15.7153 10.9436 15.715 10.9444 15.7149C10.9452 15.7147 10.9453 15.7148 10.9444 15.7148V17.7148C12.05 17.7148 12.9417 16.8168 12.9417 15.7148H10.9417ZM10.9444 15.7148C10.9434 15.7148 10.9435 15.7147 10.9443 15.7149C10.9451 15.715 10.9459 15.7153 10.9466 15.7156C10.9478 15.7161 10.9478 15.7163 10.9472 15.7157C10.9466 15.7151 10.9465 15.7148 10.9468 15.7154C10.9469 15.7157 10.947 15.7161 10.9471 15.7164C10.9471 15.7167 10.947 15.7163 10.947 15.7148H8.94701C8.94701 16.8168 9.83874 17.7148 10.9444 17.7148V15.7148ZM10.947 15.7148C10.947 15.7133 10.9471 15.7129 10.9471 15.7132C10.947 15.7135 10.9469 15.7139 10.9468 15.7142C10.9465 15.7148 10.9466 15.7144 10.9472 15.7138C10.9478 15.7132 10.9478 15.7135 10.9466 15.714C10.9459 15.7143 10.9451 15.7145 10.9443 15.7147C10.9435 15.7149 10.9434 15.7148 10.9444 15.7148V13.7148C9.83874 13.7148 8.94701 14.6127 8.94701 15.7148H10.947ZM10.9444 15.7148C10.9453 15.7148 10.9452 15.7149 10.9444 15.7147C10.9436 15.7145 10.9428 15.7143 10.9421 15.714C10.9409 15.7135 10.9409 15.7132 10.9415 15.7138C10.9421 15.7144 10.9422 15.7148 10.9419 15.7142C10.9418 15.7139 10.9417 15.7135 10.9416 15.7132C10.9416 15.7129 10.9417 15.7133 10.9417 15.7148H12.9417C12.9417 14.6127 12.05 13.7148 10.9444 13.7148V15.7148Z" fill="#999999" mask="url(#path-1-inside-1_684_7477)"/>
</svg>
