<svg xmlns="http://www.w3.org/2000/svg" xmlns:xlink="http://www.w3.org/1999/xlink" version="1.1" width="256" height="256" viewBox="0 0 256 256" xml:space="preserve">
<desc>Created with Fabric.js 1.7.22</desc>
<defs>
</defs>
<g transform="translate(128 128) scale(0.72 0.72)" style="">
	<g style="stroke: none; stroke-width: 0; stroke-dasharray: none; stroke-linecap: butt; stroke-linejoin: miter; stroke-miterlimit: 10; fill: none; fill-rule: nonzero; opacity: 1;" transform="translate(-175.05 -175.05000000000004) scale(3.89 3.89)" >
	<path d="M 45 89.998 c -0.959 0 -1.918 -0.151 -2.831 -0.455 C 22.605 83.045 9.963 67.486 9.963 49.905 V 18.856 c 0 -3.162 2.252 -5.866 5.354 -6.43 l 0 0 c 9.925 -1.806 18.571 -5.528 25.698 -11.063 c 2.348 -1.823 5.623 -1.822 7.968 0 c 7.128 5.535 15.774 9.257 25.699 11.063 c 3.102 0.564 5.354 3.268 5.354 6.43 v 31.049 c 0 17.581 -12.642 33.14 -32.206 39.638 C 46.918 89.847 45.959 89.998 45 89.998 z M 45 6 c -0.108 0 -0.216 0.034 -0.304 0.103 C 36.799 12.236 27.276 16.35 16.392 18.33 c 0 0 0 0 -0.001 0 c -0.248 0.045 -0.428 0.267 -0.428 0.526 v 31.049 c 0 14.951 11.029 28.274 28.098 33.944 c 0.606 0.201 1.273 0.201 1.878 0 c 17.069 -5.669 28.097 -18.993 28.097 -33.944 V 18.856 c 0 -0.26 -0.18 -0.481 -0.427 -0.526 c -10.885 -1.98 -20.408 -6.094 -28.306 -12.227 C 45.215 6.035 45.108 6 45 6 z M 15.855 15.378 h 0.01 H 15.855 z" style="stroke: none; stroke-width: 1; stroke-dasharray: none; stroke-linecap: butt; stroke-linejoin: miter; stroke-miterlimit: 10; fill: rgb(255,203,211); fill-rule: nonzero; opacity: 1;" transform=" matrix(1 0 0 1 0 0) " stroke-linecap="round" />
	<path d="M 53.811 40.39 l -1.82 -1.82 c -0.624 -0.624 -1.636 -0.624 -2.261 0 l -6.242 6.242 l -3.218 -3.218 c -0.624 -0.624 -1.636 -0.624 -2.261 0 l -1.82 1.82 c -0.624 0.624 -0.624 1.636 0 2.261 l 6.168 6.168 c 0.624 0.624 1.636 0.624 2.261 0 l 9.193 -9.193 C 54.435 42.027 54.435 41.014 53.811 40.39 z" style="stroke: none; stroke-width: 1; stroke-dasharray: none; stroke-linecap: butt; stroke-linejoin: miter; stroke-miterlimit: 10; fill: rgb(255,203,211); fill-rule: nonzero; opacity: 1;" transform=" matrix(1 0 0 1 0 0) " stroke-linecap="round" />
	<path d="M 45 66.613 c -12.444 0 -22.568 -10.124 -22.568 -22.568 c 0 -12.444 10.124 -22.568 22.568 -22.568 s 22.568 10.124 22.568 22.568 C 67.568 56.489 57.444 66.613 45 66.613 z M 45 27.477 c -9.136 0 -16.568 7.433 -16.568 16.568 c 0 9.135 7.433 16.568 16.568 16.568 s 16.568 -7.433 16.568 -16.568 C 61.568 34.91 54.136 27.477 45 27.477 z" style="stroke: none; stroke-width: 1; stroke-dasharray: none; stroke-linecap: butt; stroke-linejoin: miter; stroke-miterlimit: 10; fill: rgb(255,203,211); fill-rule: nonzero; opacity: 1;" transform=" matrix(1 0 0 1 0 0) " stroke-linecap="round" />
</g>
</g>
</svg>